<?xml version="1.0" encoding="UTF-8"?>
<!-- Generator: visioncortex VTracer 0.6.3 -->
<svg version="1.1" xmlns="http://www.w3.org/2000/svg" width="1280" height="1280">
<path d="M0 0 C0.92 -0.01 1.85 -0.01 2.8 -0.02 C5.87 -0.03 8.94 -0.02 12.01 -0.02 C14.22 -0.02 16.43 -0.03 18.64 -0.04 C24.62 -0.06 30.61 -0.05 36.6 -0.05 C41.6 -0.05 46.61 -0.05 51.61 -0.06 C64.1 -0.07 76.58 -0.07 89.07 -0.06 C99.89 -0.05 110.71 -0.06 121.54 -0.08 C132.67 -0.11 143.81 -0.12 154.94 -0.11 C161.18 -0.11 167.43 -0.11 173.67 -0.13 C179.54 -0.14 185.41 -0.14 191.29 -0.12 C193.44 -0.12 195.59 -0.12 197.73 -0.13 C218.62 -0.22 218.62 -0.22 227.41 4.39 C228.16 4.78 228.92 5.16 229.69 5.56 C234.29 8.07 237.26 11.33 240.56 15.34 C243.19 18.24 246.21 20.46 249.34 22.8 C251.94 24.79 254.16 27.02 256.41 29.39 C257.65 30.63 257.65 30.63 258.91 31.89 C266.41 39.39 266.41 39.39 268.04 41.08 C268.9 41.98 268.9 41.98 269.79 42.89 C270.31 43.43 270.83 43.98 271.37 44.54 C272.05 45.15 272.72 45.76 273.41 46.39 C274.29 47.23 275.16 48.08 276.06 48.96 C281.89 53.04 289.26 52.14 296.09 52.15 C297.71 52.17 299.32 52.19 300.94 52.21 C305.38 52.27 309.83 52.3 314.27 52.32 C319.06 52.35 323.85 52.4 328.65 52.46 C340.22 52.57 351.8 52.64 363.37 52.7 C367.74 52.73 372.1 52.75 376.47 52.78 C395.73 52.89 414.99 52.99 434.25 53.04 C438.96 53.06 443.67 53.07 448.38 53.08 C450.14 53.09 450.14 53.09 451.93 53.09 C470.87 53.15 489.81 53.31 508.75 53.51 C528.23 53.71 547.7 53.83 567.17 53.85 C578.09 53.86 589.01 53.92 599.94 54.08 C609.25 54.21 618.55 54.26 627.86 54.21 C632.6 54.18 637.34 54.2 642.08 54.32 C665.05 55.13 665.05 55.13 684.58 44.55 C689.18 40.09 693.2 35.2 697.14 30.16 C699.75 26.97 702.57 24.36 705.76 21.76 C708.22 19.72 710.27 17.32 712.41 14.95 C720.52 6.72 731.77 0.47 743.5 0.26 C745.15 0.25 746.8 0.25 748.46 0.25 C749.37 0.24 750.28 0.24 751.22 0.24 C754.28 0.23 757.34 0.23 760.4 0.23 C762.59 0.22 764.79 0.22 766.98 0.21 C772.94 0.2 778.9 0.19 784.85 0.19 C788.58 0.18 792.3 0.18 796.02 0.18 C807.68 0.16 819.33 0.15 830.98 0.15 C832.32 0.15 833.66 0.15 835 0.15 C835.66 0.15 836.33 0.15 837.01 0.15 C847.78 0.14 858.55 0.13 869.31 0.1 C880.38 0.08 891.44 0.07 902.51 0.06 C908.71 0.06 914.92 0.06 921.13 0.04 C926.97 0.02 932.81 0.02 938.65 0.03 C940.79 0.03 942.93 0.03 945.07 0.02 C948 0 950.93 0.01 953.86 0.02 C955.12 0.01 955.12 0.01 956.41 -0 C968.1 0.09 978.29 5.24 986.72 13.2 C995.95 23.16 997.62 34.03 997.33 47.25 C996.26 58.12 991.34 65.1 983.41 72.39 C982.86 73.07 982.3 73.75 981.72 74.45 C974.26 80.71 964.47 81.55 955.11 81.5 C954.29 81.5 953.47 81.5 952.63 81.5 C949.89 81.5 947.15 81.49 944.41 81.48 C942.44 81.48 940.47 81.48 938.5 81.48 C934.27 81.48 930.03 81.47 925.8 81.46 C919.1 81.46 912.4 81.46 905.7 81.47 C904.01 81.47 904.01 81.47 902.27 81.48 C899.96 81.48 897.65 81.48 895.34 81.48 C879.75 81.51 864.15 81.52 848.56 81.49 C838.04 81.47 827.52 81.47 817 81.5 C811.43 81.52 805.86 81.52 800.3 81.49 C795.06 81.47 789.83 81.48 784.59 81.51 C782.67 81.51 780.76 81.51 778.84 81.49 C767.36 80.98 767.36 80.98 757.39 85.78 C756.37 86.95 755.37 88.15 754.41 89.39 C753.44 90.3 752.44 91.19 751.43 92.06 C750.51 92.89 749.6 93.72 748.66 94.58 C747.91 95.26 747.91 95.26 747.15 95.95 C744.4 98.48 741.73 101.06 739.12 103.73 C738.58 104.28 738.04 104.82 737.49 105.39 C736.46 106.45 735.44 107.52 734.42 108.59 C731.81 111.29 730.07 112.64 726.41 113.39 C726.08 114.38 725.75 115.37 725.41 116.39 C723.7 118.07 723.7 118.07 721.6 119.83 C719.4 121.68 717.36 123.45 715.41 125.58 C709.38 131.04 702.45 132.49 694.53 132.59 C693.85 132.6 693.17 132.61 692.46 132.62 C690.21 132.65 687.96 132.68 685.71 132.7 C684.15 132.72 682.58 132.75 681.02 132.77 C676.91 132.82 672.8 132.87 668.69 132.92 C664.49 132.97 660.3 133.03 656.1 133.08 C647.87 133.19 639.64 133.29 631.41 133.39 C632.13 137.49 633.26 140.05 635.6 143.51 C641.44 152.45 646.06 161.24 649.41 171.39 C649.68 172.17 649.94 172.96 650.22 173.76 C650.72 175.25 651.21 176.74 651.7 178.23 C652.16 179.63 652.65 181.03 653.16 182.42 C655.5 188.91 656.77 195.57 658.02 202.35 C658.29 203.78 658.6 205.2 658.92 206.61 C660.5 213.69 660.89 220.65 661.1 227.89 C661.15 229.75 661.15 229.75 661.21 231.66 C661.3 235.24 661.36 238.81 661.41 242.39 C661.42 243.24 661.44 244.09 661.45 244.97 C661.54 266.28 656.7 291.65 646.41 310.39 C645.7 311.78 644.99 313.18 644.29 314.58 C643.97 315.19 643.66 315.8 643.34 316.43 C642.36 318.42 642.36 318.42 641.55 320.72 C639.88 324.63 637.55 328.09 635.25 331.66 C633.41 334.56 632.13 337.04 631.41 340.39 C632.24 340.38 633.07 340.37 633.93 340.36 C641.78 340.28 649.64 340.22 657.49 340.18 C661.53 340.16 665.57 340.13 669.6 340.09 C673.51 340.04 677.41 340.02 681.31 340.01 C682.8 340 684.28 339.99 685.76 339.96 C697.66 339.8 706.63 341.34 715.72 349.33 C716.69 350.16 717.66 350.99 718.65 351.85 C721.92 354.86 725.04 357.99 728.15 361.16 C731 364.06 733.88 366.82 736.97 369.45 C739.72 371.8 742.3 374.26 744.82 376.84 C745.43 377.46 746.04 378.08 746.67 378.73 C747.89 379.98 749.11 381.24 750.31 382.5 C751.17 383.38 751.17 383.38 752.04 384.28 C752.55 384.8 753.05 385.33 753.57 385.87 C758.58 390 763.32 390.83 769.64 390.78 C770.46 390.79 771.27 390.79 772.11 390.8 C774.82 390.81 777.54 390.81 780.25 390.8 C782.2 390.81 784.15 390.82 786.1 390.83 C791.39 390.85 796.68 390.86 801.97 390.86 C807.5 390.87 813.03 390.89 818.56 390.91 C829.03 390.95 839.5 390.97 849.97 390.99 C868.75 391.03 887.52 391.08 906.29 391.15 C912.89 391.17 919.48 391.18 926.07 391.19 C930.16 391.2 934.25 391.21 938.34 391.22 C940.25 391.23 942.15 391.23 944.05 391.23 C946.64 391.23 949.23 391.24 951.82 391.25 C952.58 391.25 953.34 391.25 954.13 391.25 C959.3 391.27 959.3 391.27 960.41 392.39 C961.74 392.49 963.08 392.57 964.41 392.64 C969.94 393.21 973.82 395.37 978.41 398.39 C979.1 398.82 979.8 399.25 980.51 399.7 C986.25 403.6 989.72 408.59 993.41 414.39 C994.07 415.38 994.73 416.37 995.41 417.39 C997.98 428.53 999.08 441.07 993.41 451.39 C992.89 452.35 992.89 452.35 992.35 453.34 C987.28 462.1 980.6 468.52 970.79 471.48 C966.1 472.59 961.58 472.67 956.78 472.64 C955.84 472.64 954.9 472.65 953.93 472.65 C950.8 472.66 947.67 472.65 944.53 472.65 C942.28 472.65 940.03 472.65 937.78 472.66 C931.67 472.67 925.56 472.66 919.45 472.66 C913.06 472.65 906.66 472.66 900.26 472.66 C888.83 472.66 877.4 472.66 865.97 472.65 C855.62 472.64 845.27 472.64 834.92 472.65 C822.88 472.66 810.85 472.66 798.81 472.66 C792.45 472.65 786.08 472.65 779.71 472.66 C773.73 472.67 767.74 472.66 761.76 472.65 C759.56 472.65 757.37 472.65 755.17 472.65 C752.17 472.66 749.17 472.65 746.17 472.64 C745.31 472.65 744.45 472.65 743.56 472.66 C736.28 472.61 728.68 472.17 722.91 467.33 C722.17 466.71 721.43 466.09 720.67 465.46 C717.49 462.54 714.48 459.48 711.47 456.38 C709.35 454.21 709.35 454.21 706.22 452.26 C703.13 450.2 701.18 447.97 698.85 445.12 C696.85 442.72 694.65 440.57 692.41 438.39 C691.67 437.63 690.94 436.88 690.18 436.1 C687.14 433.12 683.98 430.37 680.72 427.64 C680.14 427.14 679.56 426.65 678.96 426.14 C674.24 422.15 672.26 421.26 666.1 421.25 C665.44 421.24 664.78 421.24 664.1 421.24 C661.87 421.23 659.65 421.22 657.42 421.22 C655.81 421.21 654.21 421.21 652.61 421.2 C648.18 421.19 643.75 421.18 639.33 421.17 C635.53 421.16 631.74 421.15 627.95 421.14 C614.36 421.1 600.77 421.07 587.19 421.04 C586.11 421.04 585.04 421.04 583.94 421.04 C562.66 421 541.39 420.97 520.11 420.94 C515.43 420.94 510.75 420.93 506.07 420.93 C504.91 420.93 503.75 420.93 502.55 420.92 C483.71 420.9 464.86 420.85 446.02 420.79 C426.68 420.73 407.34 420.7 388.01 420.69 C377.14 420.68 366.28 420.66 355.42 420.62 C346.17 420.58 336.92 420.56 327.67 420.57 C322.95 420.58 318.24 420.58 313.52 420.54 C309.19 420.51 304.87 420.51 300.55 420.53 C298.99 420.54 297.42 420.53 295.86 420.51 C286.05 420.25 286.05 420.25 277.64 424.76 C276.54 425.95 275.46 427.16 274.41 428.39 C268.91 433.39 268.91 433.39 266.41 433.39 C266.08 434.38 265.75 435.37 265.41 436.39 C263.81 437.93 263.81 437.93 261.79 439.58 C258.9 442.02 256.35 444.49 253.91 447.39 C250.42 451.5 246.53 454.91 242.41 458.39 C241.06 459.59 239.7 460.8 238.35 462.01 C237.04 463.14 235.73 464.27 234.41 465.39 C233.84 465.88 233.26 466.36 232.67 466.87 C225.59 472.43 217.36 472.69 208.66 472.65 C207.25 472.65 207.25 472.65 205.81 472.66 C202.68 472.67 199.55 472.67 196.42 472.66 C194.17 472.67 191.91 472.67 189.66 472.68 C183.56 472.69 177.46 472.69 171.35 472.69 C166.25 472.69 161.15 472.69 156.05 472.7 C143.34 472.71 130.62 472.71 117.9 472.7 C106.87 472.7 95.84 472.71 84.8 472.73 C73.46 472.75 62.11 472.75 50.77 472.75 C44.41 472.75 38.05 472.75 31.68 472.77 C25.7 472.78 19.72 472.78 13.74 472.76 C11.55 472.76 9.35 472.76 7.16 472.77 C4.16 472.78 1.16 472.77 -1.83 472.76 C-2.7 472.77 -3.56 472.78 -4.45 472.78 C-16.05 472.68 -25.02 467.83 -33.4 460.01 C-36.74 456.49 -38.78 452.86 -40.59 448.39 C-40.89 447.71 -41.19 447.03 -41.49 446.34 C-45.02 437.41 -44.64 427.25 -41.82 418.15 C-37.98 409.54 -31.66 402.24 -23.59 397.39 C-22.98 397 -22.36 396.61 -21.73 396.22 C-10.54 389.85 3.25 391.17 15.66 391.35 C17.59 391.37 19.51 391.39 21.43 391.41 C25.56 391.45 29.68 391.49 33.8 391.54 C40.33 391.61 46.87 391.65 53.4 391.68 C55.06 391.68 55.06 391.68 56.75 391.69 C60.16 391.71 63.56 391.72 66.97 391.74 C81.02 391.79 95.07 391.88 109.12 392.06 C119.39 392.2 129.66 392.27 139.94 392.27 C145.36 392.27 150.78 392.3 156.21 392.41 C181.55 394.08 181.55 394.08 203.58 384.01 C206.33 380.96 208.7 377.8 210.96 374.37 C213.06 371.5 215.34 370.14 218.41 368.39 C219.76 367.16 221.07 365.88 222.33 364.56 C223.37 363.49 223.37 363.49 224.43 362.4 C225.14 361.65 225.86 360.91 226.6 360.14 C237.35 349.21 246.89 340.22 263.04 340.05 C266.04 340.04 269.04 340.06 272.04 340.09 C273.64 340.1 275.24 340.1 276.84 340.11 C281.03 340.12 285.22 340.15 289.41 340.18 C293.69 340.21 297.97 340.23 302.26 340.24 C310.64 340.27 319.03 340.32 327.41 340.39 C326.95 339.29 326.49 338.2 326.02 337.07 C325.76 336.45 325.5 335.84 325.24 335.2 C324.04 332.57 322.51 330.23 320.91 327.83 C318.45 324.11 316.35 320.4 314.41 316.39 C313.74 315.06 313.74 315.06 313.05 313.7 C306.69 300.56 301.08 285.96 299.41 271.39 C299.08 271.39 298.75 271.39 298.41 271.39 C298.29 265.64 298.29 265.64 299.41 263.39 C298.75 263.39 298.09 263.39 297.41 263.39 C297.29 256.64 297.29 256.64 298.41 254.39 C297.75 254.39 297.09 254.39 296.41 254.39 C296.36 249.55 296.33 244.72 296.3 239.89 C296.29 238.25 296.28 236.61 296.26 234.98 C296.12 221.43 296.27 207.78 300.63 194.8 C301.52 192.07 302.15 189.31 302.79 186.51 C304.37 180.14 306.69 174.35 309.41 168.39 C309.77 167.61 310.12 166.83 310.49 166.02 C311.72 163.32 312.97 160.64 314.22 157.95 C314.81 156.68 314.81 156.68 315.41 155.39 C317.84 150.25 320.58 145.37 323.59 140.55 C323.96 139.95 324.32 139.36 324.7 138.74 C325.61 137.29 326.51 135.84 327.41 134.39 C326.53 134.39 325.65 134.4 324.74 134.4 C316.42 134.44 308.11 134.47 299.8 134.49 C295.52 134.5 291.25 134.52 286.97 134.54 C282.85 134.56 278.73 134.57 274.6 134.58 C273.03 134.58 271.45 134.59 269.88 134.6 C267.68 134.61 265.47 134.62 263.27 134.61 C262.02 134.62 260.76 134.62 259.47 134.63 C256.41 134.39 256.41 134.39 253.41 132.39 C252.17 131.93 250.94 131.48 249.66 131.01 C242.41 128.32 238.11 125.34 233.2 119.45 C230.93 116.83 228.4 114.66 225.77 112.42 C222.82 109.88 219.96 107.27 217.1 104.64 C216.54 104.13 215.99 103.61 215.41 103.09 C210.81 98.82 206.4 94.38 202.04 89.86 C196.16 84.34 192.19 81.63 183.99 81.76 C183.17 81.75 182.35 81.75 181.5 81.74 C178.77 81.72 176.03 81.74 173.29 81.76 C171.32 81.75 169.36 81.75 167.39 81.74 C163.16 81.72 158.92 81.72 154.69 81.73 C148 81.75 141.3 81.74 134.61 81.72 C124.02 81.69 113.43 81.69 102.84 81.7 C83.88 81.71 64.92 81.68 45.96 81.64 C39.3 81.63 32.65 81.63 26 81.64 C21.86 81.64 17.72 81.63 13.58 81.63 C11.66 81.63 9.74 81.63 7.82 81.64 C5.2 81.64 2.58 81.64 -0.04 81.63 C-0.8 81.64 -1.55 81.64 -2.33 81.65 C-12.85 81.58 -24.03 77.95 -31.59 70.39 C-41 58.33 -44.41 48.62 -43.59 33.39 C-42.21 24.37 -36.51 15.17 -29.27 9.73 C-19.93 3.33 -11.37 -0.08 0 0 Z M429.41 148.39 C428.63 148.79 427.85 149.19 427.04 149.61 C416.96 155.14 399.34 168.55 395.65 179.7 C395.57 180.26 395.49 180.81 395.41 181.39 C394.75 181.39 394.09 181.39 393.41 181.39 C392.52 183.17 391.63 184.96 390.75 186.75 C389.78 188.65 388.77 190.54 387.73 192.4 C383.26 200.67 380.91 208.52 379.14 217.75 C378.41 221.39 378.41 221.39 377.41 223.39 C377.17 227.97 377.23 232.55 377.22 237.14 C377.21 238.41 377.2 239.69 377.19 241 C377.19 242.24 377.18 243.47 377.18 244.75 C377.18 245.88 377.17 247 377.17 248.17 C377.42 251.55 378.25 254.22 379.41 257.39 C379.8 259.51 380.18 261.63 380.54 263.76 C382.18 271.76 385.59 278.48 389.46 285.62 C390.84 288.18 392.13 290.78 393.41 293.39 C394.07 293.39 394.73 293.39 395.41 293.39 C395.64 294.09 395.86 294.8 396.1 295.52 C397.68 298.98 399.89 301.47 402.47 304.2 C402.97 304.72 403.46 305.25 403.96 305.79 C410.62 312.82 417.78 319.81 426.41 324.39 C427.4 324.39 428.39 324.39 429.41 324.39 C429.41 325.05 429.41 325.71 429.41 326.39 C435.78 329.51 441.96 331.99 448.85 333.69 C451.22 334.34 453.35 335.16 455.6 336.14 C459.81 337.82 463.02 337.25 467.41 336.39 C467.74 337.05 468.07 337.71 468.41 338.39 C488.92 337.75 509.18 336.93 527.41 326.39 C528.31 325.87 529.2 325.36 530.12 324.83 C536.92 320.71 542.69 315.88 548.41 310.39 C549.26 309.58 550.1 308.78 550.97 307.95 C551.78 307.1 552.58 306.26 553.41 305.39 C554.1 304.67 554.79 303.95 555.5 303.22 C563.65 294.5 568.69 285.27 573.41 274.39 C573.97 273.23 574.53 272.08 575.1 270.89 C578 263.15 578.64 255.02 579.17 246.82 C579.41 244.39 579.41 244.39 580.41 242.39 C580.48 239.5 580.5 236.65 580.47 233.76 C580.47 232.56 580.47 232.56 580.46 231.33 C580.45 229.35 580.43 227.37 580.41 225.39 C580.08 225.39 579.75 225.39 579.41 225.39 C579.41 222.75 579.41 220.11 579.41 217.39 C578.75 217.39 578.09 217.39 577.41 217.39 C577.41 216.85 577.41 216.32 577.4 215.76 C576.39 195.14 563.12 177.04 549.16 162.89 C548.65 162.37 548.15 161.85 547.62 161.32 C545.03 158.75 542.71 156.91 539.41 155.39 C538.95 154.92 538.48 154.45 538 153.97 C523.82 139.82 498.9 135.18 479.72 135.2 C461.18 135.27 445.64 139.45 429.41 148.39 Z M299.41 202.39 C300.41 204.39 300.41 204.39 300.41 204.39 Z M298.41 209.39 C299.41 211.39 299.41 211.39 299.41 211.39 Z M297.41 218.39 C298.41 221.39 298.41 221.39 298.41 221.39 Z M579.41 244.39 C579.41 246.04 579.41 247.69 579.41 249.39 C579.74 249.39 580.07 249.39 580.41 249.39 C580.41 247.74 580.41 246.09 580.41 244.39 C580.08 244.39 579.75 244.39 579.41 244.39 Z " fill="#FA0201" transform="translate(162.58810424804688,402.61231994628906)"/>
<path d="M0 0 C71.61 0 143.22 0 217 0 C217 0.33 217 0.66 217 1 C145.39 1 73.78 1 0 1 C0 0.67 0 0.34 0 0 Z " fill="#000000" transform="translate(904,876)"/>
<path d="M0 0 C71.61 0 143.22 0 217 0 C217 0.33 217 0.66 217 1 C145.39 1 73.78 1 0 1 C0 0.67 0 0.34 0 0 Z " fill="#000000" transform="translate(159,876)"/>
<path d="M0 0 C22.11 0 44.22 0 67 0 C67 0.33 67 0.66 67 1 C44.89 1 22.78 1 0 1 C0 0.67 0 0.34 0 0 Z " fill="#000000" transform="translate(794,536)"/>
<path d="" fill="#000000" transform="translate(0,0)"/>
<path d="" fill="#000000" transform="translate(0,0)"/>
<path d="" fill="#000000" transform="translate(0,0)"/>
</svg>
